<svg id="visual" viewBox="0 0 960 540" width="960" height="540" xmlns="http://www.w3.org/2000/svg" xmlns:xlink="http://www.w3.org/1999/xlink" version="1.1"><rect x="0" y="0" width="960" height="540" fill="#FFA559"></rect><path d="M0 393L22.8 389.5C45.7 386 91.3 379 137 374.5C182.7 370 228.3 368 274 372.5C319.7 377 365.3 388 411.2 383.3C457 378.7 503 358.3 548.8 345.8C594.7 333.3 640.3 328.7 686 333.5C731.7 338.3 777.3 352.7 823 358.3C868.7 364 914.3 361 937.2 359.5L960 358L960 541L937.2 541C914.3 541 868.7 541 823 541C777.3 541 731.7 541 686 541C640.3 541 594.7 541 548.8 541C503 541 457 541 411.2 541C365.3 541 319.7 541 274 541C228.3 541 182.7 541 137 541C91.3 541 45.7 541 22.8 541L0 541Z" fill="#ffa559"></path><path d="M0 425L22.8 420.2C45.7 415.3 91.3 405.7 137 405C182.7 404.3 228.3 412.7 274 408.2C319.7 403.7 365.3 386.3 411.2 385.5C457 384.7 503 400.3 548.8 398.3C594.7 396.3 640.3 376.7 686 367.3C731.7 358 777.3 359 823 366.2C868.7 373.3 914.3 386.7 937.2 393.3L960 400L960 541L937.2 541C914.3 541 868.7 541 823 541C777.3 541 731.7 541 686 541C640.3 541 594.7 541 548.8 541C503 541 457 541 411.2 541C365.3 541 319.7 541 274 541C228.3 541 182.7 541 137 541C91.3 541 45.7 541 22.8 541L0 541Z" fill="#ffb672"></path><path d="M0 420L22.8 422.3C45.7 424.7 91.3 429.3 137 431.5C182.7 433.7 228.3 433.3 274 437.3C319.7 441.3 365.3 449.7 411.2 444.7C457 439.7 503 421.3 548.8 412.5C594.7 403.7 640.3 404.3 686 408.2C731.7 412 777.3 419 823 426C868.7 433 914.3 440 937.2 443.5L960 447L960 541L937.2 541C914.3 541 868.7 541 823 541C777.3 541 731.7 541 686 541C640.3 541 594.7 541 548.8 541C503 541 457 541 411.2 541C365.3 541 319.7 541 274 541C228.3 541 182.7 541 137 541C91.3 541 45.7 541 22.8 541L0 541Z" fill="#ffc78d"></path><path d="M0 453L22.8 450.2C45.7 447.3 91.3 441.7 137 445C182.7 448.3 228.3 460.7 274 463.3C319.7 466 365.3 459 411.2 454.3C457 449.7 503 447.3 548.8 451.8C594.7 456.3 640.3 467.7 686 467.3C731.7 467 777.3 455 823 447.5C868.7 440 914.3 437 937.2 435.5L960 434L960 541L937.2 541C914.3 541 868.7 541 823 541C777.3 541 731.7 541 686 541C640.3 541 594.7 541 548.8 541C503 541 457 541 411.2 541C365.3 541 319.7 541 274 541C228.3 541 182.7 541 137 541C91.3 541 45.7 541 22.8 541L0 541Z" fill="#ffd7a9"></path><path d="M0 510L22.8 503.8C45.7 497.7 91.3 485.3 137 481.8C182.7 478.3 228.3 483.7 274 489.3C319.7 495 365.3 501 411.2 498.7C457 496.3 503 485.7 548.8 482.7C594.7 479.7 640.3 484.3 686 490.2C731.7 496 777.3 503 823 502.3C868.7 501.7 914.3 493.3 937.2 489.2L960 485L960 541L937.2 541C914.3 541 868.7 541 823 541C777.3 541 731.7 541 686 541C640.3 541 594.7 541 548.8 541C503 541 457 541 411.2 541C365.3 541 319.7 541 274 541C228.3 541 182.7 541 137 541C91.3 541 45.7 541 22.8 541L0 541Z" fill="#ffe6c7"></path></svg>