<svg id="visual" viewBox="0 0 1002 540" width="1002" height="540" xmlns="http://www.w3.org/2000/svg" xmlns:xlink="http://www.w3.org/1999/xlink" version="1.1"><rect x="0" y="0" width="1002" height="540" fill="#FFA559"></rect><path d="M0 343L33.3 348.8C66.7 354.7 133.3 366.3 200.2 379.7C267 393 334 408 400.8 408.8C467.7 409.7 534.3 396.3 601.2 378.8C668 361.3 735 339.7 801.8 350.7C868.7 361.7 935.3 405.3 968.7 427.2L1002 449L1002 541L968.7 541C935.3 541 868.7 541 801.8 541C735 541 668 541 601.2 541C534.3 541 467.7 541 400.8 541C334 541 267 541 200.2 541C133.3 541 66.7 541 33.3 541L0 541Z" fill="#ffa559"></path><path d="M0 434L33.3 437.5C66.7 441 133.3 448 200.2 442.5C267 437 334 419 400.8 399.7C467.7 380.3 534.3 359.7 601.2 360.5C668 361.3 735 383.7 801.8 384.2C868.7 384.7 935.3 363.3 968.7 352.7L1002 342L1002 541L968.7 541C935.3 541 868.7 541 801.8 541C735 541 668 541 601.2 541C534.3 541 467.7 541 400.8 541C334 541 267 541 200.2 541C133.3 541 66.7 541 33.3 541L0 541Z" fill="#ffb36d"></path><path d="M0 462L33.3 459.2C66.7 456.3 133.3 450.7 200.2 441C267 431.3 334 417.7 400.8 413.7C467.7 409.7 534.3 415.3 601.2 420.2C668 425 735 429 801.8 423.5C868.7 418 935.3 403 968.7 395.5L1002 388L1002 541L968.7 541C935.3 541 868.7 541 801.8 541C735 541 668 541 601.2 541C534.3 541 467.7 541 400.8 541C334 541 267 541 200.2 541C133.3 541 66.7 541 33.3 541L0 541Z" fill="#ffc082"></path><path d="M0 460L33.3 460.7C66.7 461.3 133.3 462.7 200.2 454C267 445.3 334 426.7 400.8 420.5C467.7 414.3 534.3 420.7 601.2 425.2C668 429.7 735 432.3 801.8 439.7C868.7 447 935.3 459 968.7 465L1002 471L1002 541L968.7 541C935.3 541 868.7 541 801.8 541C735 541 668 541 601.2 541C534.3 541 467.7 541 400.8 541C334 541 267 541 200.2 541C133.3 541 66.7 541 33.3 541L0 541Z" fill="#ffcd98"></path><path d="M0 442L33.3 444.7C66.7 447.3 133.3 452.7 200.2 456.3C267 460 334 462 400.8 470.5C467.7 479 534.3 494 601.2 499C668 504 735 499 801.8 494.2C868.7 489.3 935.3 484.7 968.7 482.3L1002 480L1002 541L968.7 541C935.3 541 868.7 541 801.8 541C735 541 668 541 601.2 541C534.3 541 467.7 541 400.8 541C334 541 267 541 200.2 541C133.3 541 66.7 541 33.3 541L0 541Z" fill="#ffdaaf"></path><path d="M0 507L33.3 508.8C66.7 510.7 133.3 514.3 200.2 511C267 507.7 334 497.3 400.8 492.2C467.7 487 534.3 487 601.2 490.2C668 493.3 735 499.7 801.8 503.3C868.7 507 935.3 508 968.7 508.5L1002 509L1002 541L968.7 541C935.3 541 868.7 541 801.8 541C735 541 668 541 601.2 541C534.3 541 467.7 541 400.8 541C334 541 267 541 200.2 541C133.3 541 66.7 541 33.3 541L0 541Z" fill="#ffe6c7"></path></svg>