<svg id="visual" viewBox="0 0 1002 150" width="1002" height="150" xmlns="http://www.w3.org/2000/svg" xmlns:xlink="http://www.w3.org/1999/xlink" version="1.1"><rect x="0" y="0" width="1002" height="150" fill="#ffffff"></rect><path d="M0 83L18.5 89.7C37 96.3 74 109.7 111.2 112C148.3 114.3 185.7 105.7 222.8 99.7C260 93.7 297 90.3 334 91C371 91.7 408 96.3 445.2 95.3C482.3 94.3 519.7 87.7 556.8 83.8C594 80 631 79 668 86.8C705 94.7 742 111.3 779.2 117.7C816.3 124 853.7 120 890.8 111.2C928 102.3 965 88.7 983.5 81.8L1002 75L1002 0L983.5 0C965 0 928 0 890.8 0C853.7 0 816.3 0 779.2 0C742 0 705 0 668 0C631 0 594 0 556.8 0C519.7 0 482.3 0 445.2 0C408 0 371 0 334 0C297 0 260 0 222.8 0C185.7 0 148.3 0 111.2 0C74 0 37 0 18.5 0L0 0Z" fill="#ffe6c7"></path><path d="M0 90L18.5 88.7C37 87.3 74 84.7 111.2 82.5C148.3 80.3 185.7 78.7 222.8 81.8C260 85 297 93 334 97.3C371 101.7 408 102.3 445.2 100.7C482.3 99 519.7 95 556.8 87.8C594 80.7 631 70.3 668 67.5C705 64.7 742 69.3 779.2 71.5C816.3 73.7 853.7 73.3 890.8 78C928 82.7 965 92.3 983.5 97.2L1002 102L1002 0L983.5 0C965 0 928 0 890.8 0C853.7 0 816.3 0 779.2 0C742 0 705 0 668 0C631 0 594 0 556.8 0C519.7 0 482.3 0 445.2 0C408 0 371 0 334 0C297 0 260 0 222.8 0C185.7 0 148.3 0 111.2 0C74 0 37 0 18.5 0L0 0Z" fill="#ffd2a0"></path><path d="M0 63L18.5 59.7C37 56.3 74 49.7 111.2 47.3C148.3 45 185.7 47 222.8 49.7C260 52.3 297 55.7 334 53.7C371 51.7 408 44.3 445.2 47.3C482.3 50.3 519.7 63.7 556.8 67C594 70.3 631 63.7 668 57.3C705 51 742 45 779.2 42.5C816.3 40 853.7 41 890.8 42.7C928 44.3 965 46.7 983.5 47.8L1002 49L1002 0L983.5 0C965 0 928 0 890.8 0C853.7 0 816.3 0 779.2 0C742 0 705 0 668 0C631 0 594 0 556.8 0C519.7 0 482.3 0 445.2 0C408 0 371 0 334 0C297 0 260 0 222.8 0C185.7 0 148.3 0 111.2 0C74 0 37 0 18.5 0L0 0Z" fill="#ffbc7b"></path><path d="M0 49L18.5 44.7C37 40.3 74 31.7 111.2 30.7C148.3 29.7 185.7 36.3 222.8 35C260 33.7 297 24.3 334 21.3C371 18.3 408 21.7 445.2 26.3C482.3 31 519.7 37 556.8 40.5C594 44 631 45 668 40.2C705 35.3 742 24.7 779.2 21.8C816.3 19 853.7 24 890.8 28.8C928 33.7 965 38.3 983.5 40.7L1002 43L1002 0L983.5 0C965 0 928 0 890.8 0C853.7 0 816.3 0 779.2 0C742 0 705 0 668 0C631 0 594 0 556.8 0C519.7 0 482.3 0 445.2 0C408 0 371 0 334 0C297 0 260 0 222.8 0C185.7 0 148.3 0 111.2 0C74 0 37 0 18.5 0L0 0Z" fill="#ffa559"></path></svg>